<?xml version="1.0" encoding="UTF-8" standalone="no"?>
<!--?xml version="1.0" encoding="utf-8"?-->

<!-- Generator: Adobe Illustrator 18.1.1, SVG Export Plug-In . SVG Version: 6.00 Build 0)  -->

<svg
   version="1.1"
   id="_x32_"
   x="0px"
   y="0px"
   viewBox="0 0 600 250"
   style="opacity:1"
   xml:space="preserve"
   sodipodi:docname="image-placeholder.svg"
   width="600"
   height="250"
   inkscape:version="1.1.1 (3bf5ae0d25, 2021-09-20)"
   xmlns:inkscape="http://www.inkscape.org/namespaces/inkscape"
   xmlns:sodipodi="http://sodipodi.sourceforge.net/DTD/sodipodi-0.dtd"
   xmlns="http://www.w3.org/2000/svg"
   xmlns:svg="http://www.w3.org/2000/svg"><defs
   id="defs29" /><sodipodi:namedview
   id="namedview27"
   pagecolor="#ffffff"
   bordercolor="#666666"
   borderopacity="1.0"
   inkscape:pageshadow="2"
   inkscape:pageopacity="0.0"
   inkscape:pagecheckerboard="0"
   showgrid="false"
   height="511px"
   inkscape:zoom="0.78320313"
   inkscape:cx="247.70075"
   inkscape:cy="190.88279"
   inkscape:window-width="1920"
   inkscape:window-height="991"
   inkscape:window-x="-9"
   inkscape:window-y="-9"
   inkscape:window-maximized="1"
   inkscape:current-layer="g24"
   width="600px" />
<style
   type="text/css"
   id="style2">
	.st0{fill:#4B4B4B;}
</style>
<g
   id="g24"
   transform="matrix(0.53729011,0,0,0.53729011,120.01995,12.479128)">
	<path
   class="st0"
   d="m 168.8662,349.05387 c -8.80248,-8.81538 -14.21485,-20.87642 -14.22938,-34.26574 v -49.86697 h -23.93566 v 49.86697 c 0.0137,39.98154 32.46457,72.41706 72.43804,72.44531 h 32.70828 V 363.29051 H 203.1392 c -13.39658,-0.006 -25.44309,-5.42044 -34.273,-14.23664 z"
   style="fill:#def4c6;stroke-width:0.806974"
   id="path4" />
	<path
   class="st0"
   d="m 200.04526,198.20457 c 17.45969,0 31.5882,-14.12851 31.5882,-31.59627 0,-17.43791 -14.1277,-31.59547 -31.5882,-31.59547 -17.44598,0 -31.59627,14.15756 -31.59627,31.59547 0,17.46776 14.15029,31.59627 31.59627,31.59627 z"
   style="fill:#def4c6;stroke-width:0.806974"
   id="path6" />
	<path
   class="st0"
   d="m 275.2827,305.85009 h -44.32468 v -65.9766 c 0,-17.07961 -13.82669,-30.92164 -30.91357,-30.92164 -17.06508,0 -30.9063,13.84122 -30.9063,30.92164 v 75.16642 c 0,17.07154 13.83396,30.91357 30.9063,30.91357 2.31844,0 56.50757,-0.15736 56.50757,-0.15736 l 2.96482,45.74575 c 0.2082,9.36897 7.97614,16.79959 17.34511,16.59785 9.38349,-0.2082 16.80604,-7.97613 16.59139,-17.34511 l 1.80197,-64.97111 c 0,-11.04263 -8.93805,-19.97341 -19.97261,-19.97341 z"
   style="fill:#def4c6;stroke-width:0.806974"
   id="path8" />
	<path
   class="st0"
   d="m 519.9363,264.92116 v 49.86697 c -0.0137,13.38932 -5.4269,25.45036 -14.22857,34.26574 -8.83072,8.8162 -20.87723,14.23019 -34.26574,14.23664 h -32.71554 v 23.94293 h 32.71554 c 39.96621,-0.029 72.4098,-32.46458 72.43078,-72.44531 v -49.86697 z"
   style="fill:#def4c6;stroke-width:0.806974"
   id="path10" />
	<path
   class="st0"
   d="m 474.52786,198.20457 c 17.44517,0 31.59547,-14.12851 31.59547,-31.59627 0,-17.43791 -14.1503,-31.59547 -31.59547,-31.59547 -17.45969,0 -31.589,14.15756 -31.589,31.59547 0,17.46776 14.12931,31.59627 31.589,31.59627 z"
   style="fill:#def4c6;stroke-width:0.806974"
   id="path12" />
	<path
   class="st0"
   d="m 505.44224,315.0391 v -75.16642 c 0,-17.07961 -13.85575,-30.92164 -30.91357,-30.92164 -17.08606,0 -30.91357,13.84122 -30.91357,30.92164 v 65.9766 h -44.32467 c -11.03457,0 -19.97261,8.93078 -19.97261,19.97261 l 1.80197,64.97111 c -0.21546,9.36897 7.20789,17.13691 16.59139,17.3451 9.36897,0.20175 17.1361,-7.22968 17.3443,-16.59784 l 2.96563,-45.74576 c 0,0 54.18912,0.15736 56.50756,0.15736 17.07073,8.1e-4 30.91357,-13.84041 30.91357,-30.91276 z"
   style="fill:#def4c6;stroke-width:0.806974"
   id="path14" />
	<rect
   x="254.69357"
   y="265.22299"
   class="st0"
   width="171.38841"
   height="29.16889"
   style="fill:#def4c6;stroke-width:0.806974"
   id="rect16" />
	<rect
   x="327.64081"
   y="310.04877"
   class="st0"
   width="19.943562"
   height="70.607826"
   style="fill:#def4c6;stroke-width:0.806974"
   id="rect18" />
	<path
   class="st0"
   d="m 420.88102,136.46297 c 0,5.87961 -1.89881,11.40819 -5.38816,16.37673 -3.48533,4.975 -8.61123,9.3254 -14.89998,12.55652 l -4.58845,2.35475 5.95224,13.30378 c -18.05201,-3.12299 -34.8048,-8.99615 -43.26592,-12.28376 l -0.16785,-0.0718 -0.17915,-0.05 c -11.34687,-3.5685 -20.21309,-10.56012 -24.71439,-18.8308 l -9.56265,5.23404 c 6.11283,11.09831 17.20469,19.52716 30.68762,23.84931 v 0.0145 c 10.47129,4.05585 32.48232,11.76649 55.60698,14.36575 l 9.45128,1.041 -9.77084,-21.85367 c 5.73678,-3.61121 10.66093,-8.09072 14.35849,-13.36107 4.63445,-6.57604 7.38058,-14.35769 7.37009,-22.6437 0.0105,-10.3091 -4.24952,-19.81444 -11.11365,-27.25152 -6.87057,-7.46609 -16.34042,-13.022909 -27.20552,-15.995809 l -2.86879,10.502769 c 9.08169,2.46288 16.77054,7.08604 22.0546,12.85832 5.31151,5.79892 8.24405,12.56944 8.24405,19.88466 z"
   style="fill:#def4c6;stroke-width:0.806974"
   id="path20" />
	<path
   class="st0"
   d="m 261.20826,134.00815 -13.09558,29.27703 9.45935,-1.04826 c 32.65099,-3.64753 63.91963,-14.58848 78.7623,-20.33898 14.1043,-4.51583 26.27589,-12.21921 35.03802,-22.23376 8.83798,-10.0791 14.1858,-22.607369 14.17934,-36.154859 0.006,-8.85896 -2.28696,-17.31605 -6.34685,-24.904833 -6.09104,-11.392862 -16.11366,-20.855442 -28.51605,-27.474245 -12.3919,-6.626065 -27.20552,-10.445474 -43.11502,-10.445474 -21.18953,0.01453 -40.47218,6.769707 -54.66605,17.984228 -7.09007,5.606857 -12.90109,12.341057 -16.97147,19.936298 -4.05263,7.588786 -6.33556,16.045876 -6.33556,24.904836 -0.0113,11.30006 3.73307,21.919029 10.08637,30.971669 5.45354,7.73726 12.83493,14.35687 21.5212,19.52635 z M 245.5465,63.737651 c 4.90721,-9.204348 13.28603,-17.26602 24.04703,-23.016519 10.74728,-5.743235 23.83479,-9.160771 37.98186,-9.146246 18.8606,-0.01452 35.83853,6.058763 47.92135,15.621407 6.03375,4.781323 10.83686,10.402705 14.11075,16.541358 3.28116,6.14511 5.05812,12.7857 5.05812,19.77087 -0.0113,10.64721 -4.12767,20.575419 -11.47921,28.989729 -7.34104,8.3998 -17.91967,15.19129 -30.46166,19.13256 l -0.15817,0.0508 -0.16785,0.071 c -12.85429,4.98306 -38.84693,14.07121 -66.46885,18.36512 l 9.36493,-20.92807 -4.59814,-2.35475 c -9.27859,-4.75308 -16.87463,-11.19274 -22.09414,-18.63062 -5.22597,-7.44514 -8.11252,-15.794089 -8.12301,-24.696629 0.009,-6.98436 1.77615,-13.62415 5.06699,-19.77006 z"
   style="fill:#def4c6;stroke-width:0.806974"
   id="path22" />
</g>
</svg>
